# xmcd
#
# Track frame offsets:
#	182
#	11445
#	19632
#	34410
#	45722
#	57625
#	69100
#	79140
#	89610
#	104440
#
# Disc length: 1542 seconds
# Revision: 1
# Processed by: cddbd v1.5.2PL0 Copyright (c) Steve Scherf et al.
# Submitted via: dBpowerAMP V12.0
#
DISCID=7d06040a
DTITLE=Don Gibson - Country Spotlight
DYEAR=1992
DGENRE=Country
TTITLE0=Oh, Lonesome Me
TTITLE1=Blue Blue Day
TTITLE2=Sweet Dreams
TTITLE3=Just One Time
TTITLE4=I Can't Stop Loving You
TTITLE5=Sea Of Heartbreak
TTITLE6=Lonesome Number One
TTITLE7=Who Cares (For Me)
TTITLE8=Woman (Sensuous Woman)
TTITLE9=Give Myself A Party
EXTD=
EXTT0=
EXTT1=
EXTT2=
EXTT3=
EXTT4=
EXTT5=
EXTT6=
EXTT7=
EXTT8=
EXTT9=
PLAYORDER=
